<mxfile host="app.diagrams.net" modified="2022-05-17T11:58:45.450Z" agent="5.0 (Macintosh; Intel Mac OS X 10_15_7) AppleWebKit/605.1.15 (KHTML, like Gecko) Version/15.4 Safari/605.1.15" etag="6h6jR3I6j33_OIfXCOdJ" version="18.0.6" type="github">
  <diagram id="dfak9P4aBg5VRGbrMjbS" name="Page-1">
    <mxGraphModel dx="946" dy="620" grid="1" gridSize="10" guides="1" tooltips="1" connect="1" arrows="1" fold="1" page="1" pageScale="1" pageWidth="827" pageHeight="1169" math="0" shadow="0">
      <root>
        <mxCell id="0" />
        <mxCell id="1" parent="0" />
        <mxCell id="v1O0bBh__z1E16P5YVnx-1" value="&lt;b style=&quot;font-size: 14px;&quot;&gt;1x1 conv, 64&lt;br&gt;3x3 conv, 64&lt;br&gt;1x1 conv, 256&lt;br&gt;&lt;/b&gt;" style="whiteSpace=wrap;html=1;fillColor=#dae8fc;strokeColor=#6c8ebf;imageAspect=1;rounded=1;" vertex="1" parent="1">
          <mxGeometry x="220" y="50" width="190" height="80" as="geometry" />
        </mxCell>
        <mxCell id="v1O0bBh__z1E16P5YVnx-2" value="" style="whiteSpace=wrap;html=1;fillColor=#dae8fc;strokeColor=#6c8ebf;imageAspect=1;rounded=1;" vertex="1" parent="1">
          <mxGeometry x="220" y="170" width="190" height="80" as="geometry" />
        </mxCell>
        <mxCell id="v1O0bBh__z1E16P5YVnx-3" value="" style="whiteSpace=wrap;html=1;fillColor=#dae8fc;strokeColor=#6c8ebf;imageAspect=1;rounded=1;" vertex="1" parent="1">
          <mxGeometry x="220" y="290" width="190" height="80" as="geometry" />
        </mxCell>
      </root>
    </mxGraphModel>
  </diagram>
</mxfile>
